#N canvas 259 173 1357 917 24;
#X obj 246 66 r partial;
#X obj 577 515 noise~;
#X obj 584 579 lop~ 100;
#X obj 579 638 *~ 0.01;
#X obj 288 424 +~;
#X obj 302 528 dac~;
#X obj 50 161 ae 1;
#X obj 158 160 ae 2;
#X obj 267 159 ae 3;
#X obj 375 159 ae 4;
#X obj 483 158 ae 5;
#X obj 591 157 ae 6;
#X obj 700 156 ae 7;
#X obj 808 156 ae 8;
#X obj 108 203 ae 9;
#X obj 216 202 ae 10;
#X obj 337 201 ae 11;
#X obj 458 201 ae 12;
#X obj 579 200 ae 13;
#X obj 700 199 ae 14;
#X obj 821 198 ae 15;
#X obj 943 197 ae 16;
#X connect 0 0 6 0;
#X connect 0 0 7 0;
#X connect 0 0 8 0;
#X connect 0 0 9 0;
#X connect 0 0 10 0;
#X connect 0 0 11 0;
#X connect 0 0 12 0;
#X connect 0 0 13 0;
#X connect 0 0 14 0;
#X connect 0 0 15 0;
#X connect 0 0 16 0;
#X connect 0 0 17 0;
#X connect 0 0 18 0;
#X connect 0 0 19 0;
#X connect 0 0 20 0;
#X connect 0 0 21 0;
#X connect 1 0 2 0;
#X connect 2 0 3 0;
#X connect 3 0 4 0;
#X connect 4 0 5 0;
#X connect 4 0 5 1;
#X connect 6 0 4 0;
#X connect 7 0 4 0;
#X connect 8 0 4 0;
#X connect 9 0 4 0;
#X connect 10 0 4 0;
#X connect 11 0 4 0;
#X connect 12 0 4 0;
#X connect 13 0 4 0;
#X connect 14 0 4 0;
#X connect 15 0 4 0;
#X connect 16 0 4 0;
#X connect 17 0 4 0;
#X connect 18 0 4 0;
#X connect 19 0 4 0;
#X connect 20 0 4 0;
#X connect 21 0 4 0;
