#N canvas 830 543 1110 690 24;
#X obj 142 520 osc~ 200;
#X obj 143 584 dac~;
#X obj 151 50 r freq;
#X obj 477 358 -;
#X obj 494 406 /;
#X obj 677 98 loadbang;
#X obj 521 466 +;
#X obj 552 537 max 0;
#X obj 636 514 sel 0;
#X obj 472 289 t f f b;
#X obj 668 218 f;
#X obj 486 132 t l l;
#X msg 490 227 \$1;
#X msg 561 182 \$2;
#X obj 565 595 min 100;
#X obj 236 419 + 200;
#X msg 195 112 \$1 1000;
#X obj 677 146 metro 10;
#X floatatom 330 45 5 0 0 0 - - -;
#X obj 572 228 / 10;
#X connect 0 0 1 0;
#X connect 0 0 1 1;
#X connect 2 0 16 0;
#X connect 3 0 4 0;
#X connect 4 0 6 1;
#X connect 5 0 17 0;
#X connect 6 0 7 0;
#X connect 7 0 14 0;
#X connect 8 1 14 1;
#X connect 9 0 3 0;
#X connect 9 1 8 0;
#X connect 9 2 10 0;
#X connect 10 0 3 1;
#X connect 10 0 6 0;
#X connect 11 0 12 0;
#X connect 11 1 13 0;
#X connect 12 0 9 0;
#X connect 13 0 19 0;
#X connect 14 0 10 1;
#X connect 14 0 15 0;
#X connect 15 0 0 0;
#X connect 16 0 11 0;
#X connect 17 0 10 0;
#X connect 18 0 16 0;
#X connect 19 0 4 1;
