#N canvas 992 228 1351 1178 24;
#X obj 262 886 *~;
#X obj 142 640 osc~;
#X msg 414 530 \$1 200;
#X obj 521 530 del 200;
#X obj 500 76 bng 15 250 50 0 empty empty empty 17 7 0 10 -262144 -1
-1;
#X msg 523 582 0 10000;
#X obj 506 -21 inlet;
#X obj 262 950 outlet~;
#X obj 276 115 f;
#X obj 125 583 *;
#X obj 366 732 dbtorms;
#X obj 355 776 pack 0 100;
#X obj 354 826 line~;
#X msg 573 295 80;
#X text 641 295 max db;
#X obj 579 240 loadbang;
#X obj 531 346 /;
#X obj 532 397 * 10;
#X obj 413 276 t f f;
#X obj 492 446 -;
#X obj 453 377 + 10;
#X obj 810 679 -;
#X obj 827 727 /;
#X obj 1016 439 loadbang;
#X obj 860 807 +;
#X obj 891 878 max 0;
#X obj 975 855 sel 0;
#X obj 805 610 t f f b;
#X obj 1007 559 f;
#X floatatom 842 1017 5 0 0 0 - - -;
#X obj 799 426 t l l;
#X msg 794 481 \$1;
#X msg 866 481 \$2;
#X obj 885 553 / 10;
#X obj 1016 487 metro 10;
#X obj 904 937 min 100;
#X obj 183 326 r fund;
#X obj 104 411 t b f;
#X obj 89 488 f \$1;
#X obj 504 26 sel \$1;
#X connect 0 0 7 0;
#X connect 1 0 0 0;
#X connect 2 0 30 0;
#X connect 3 0 5 0;
#X connect 4 0 3 0;
#X connect 4 0 8 0;
#X connect 5 0 30 0;
#X connect 6 0 39 0;
#X connect 8 0 18 0;
#X connect 9 0 1 0;
#X connect 10 0 11 0;
#X connect 11 0 12 0;
#X connect 12 0 0 1;
#X connect 13 0 16 1;
#X connect 15 0 13 0;
#X connect 16 0 17 0;
#X connect 17 0 19 1;
#X connect 18 0 20 0;
#X connect 18 1 16 0;
#X connect 19 0 2 0;
#X connect 20 0 19 0;
#X connect 21 0 22 0;
#X connect 22 0 24 1;
#X connect 23 0 34 0;
#X connect 24 0 25 0;
#X connect 25 0 35 0;
#X connect 26 1 35 1;
#X connect 27 0 21 0;
#X connect 27 1 26 0;
#X connect 27 2 28 0;
#X connect 28 0 21 1;
#X connect 28 0 24 0;
#X connect 29 0 8 1;
#X connect 29 0 10 0;
#X connect 30 0 31 0;
#X connect 30 1 32 0;
#X connect 31 0 27 0;
#X connect 32 0 33 0;
#X connect 33 0 22 1;
#X connect 34 0 28 0;
#X connect 35 0 28 1;
#X connect 35 0 29 0;
#X connect 36 0 37 0;
#X connect 37 0 38 0;
#X connect 37 1 9 1;
#X connect 38 0 9 0;
#X connect 39 0 4 0;
